<?xml version="1.0" encoding="iso-8859-1"?>
<!DOCTYPE svg PUBLIC "-//W3C//DTD SVG 1.1//EN" "http://www.w3.org/Graphics/SVG/1.1/DTD/svg11.dtd">
<svg version="1.1" xmlns="http://www.w3.org/2000/svg" xmlns:xlink="http://www.w3.org/1999/xlink" x="0px" y="0px" width="80px" height="80px" viewBox="0 0 64 64" style="enable-background:new 0 0 64 64;" xml:space="preserve">
	<path fill="#fff" d="M32,16c-4.971,0-9,4.029-9,9v14c0,4.971,4.029,9,9,9c4.971,0,9-4.029,9-9V25C41,20.029,36.971,16,32,16z M39,39c0,3.866-3.134,7-7,7s-7-3.134-7-7V25c0-3.866,3.134-7,7-7s7,3.134,7,7V39z M32,21c-0.552,0-1,0.448-1,1v5c0,0.553,0.448,1,1,1c0.553,0,1-0.447,1-1v-5C33,21.448,32.553,21,32,21z"/>
</svg>
